<?xml version="1.0" encoding="UTF-8"?>
<svg width="100px" height="100px" viewBox="0 0 100 100" version="1.1" xmlns="http://www.w3.org/2000/svg" xmlns:xlink="http://www.w3.org/1999/xlink">
    <!-- Generator: Sketch 46.1 (44463) - http://www.bohemiancoding.com/sketch -->
    <title>easy-icon</title>
    <desc>Created with Sketch.</desc>
    <defs></defs>
    <g id="Domain-Author" stroke="none" stroke-width="1" fill="none" fill-rule="evenodd">
        <g id="1---Home-page" transform="translate(-550.000000, -760.000000)">
            <g id="content" transform="translate(0.000000, 680.000000)">
                <g id="easy-icon" transform="translate(550.000000, 80.000000)">
                    <circle id="Oval-Copy" fill="#FF9137" cx="50" cy="50" r="50"></circle>
                    <path d="M61.9727095,98.5574216 C80.7489369,93.9434365 95.3555223,78.723185 99.076935,59.6121978 C99.6826587,56.5015567 63.0335693,23.9107666 63.0335693,23.9107666 L42.3692627,79.0541992 C42.3692627,79.0541992 58.1367508,99.5000528 61.9727095,98.5574216 Z" id="Oval-Copy-6" fill="#F08C32"></path>
                    <path d="M67.4699707,49.1009015 C69.1921387,46.2159632 70,42.6335554 70,39 C70,27.954305 61.045695,19 50,19 C38.954305,19 30,27.954305 30,39 C30,42.6845987 30.9942035,46.1209925 32.7344064,49.1009015 C34.4746094,52.0808105 42,61.0233154 42,67 L42,77.9961117 C42,78.5505439 42.3858566,79.2411604 42.8561401,79.5350876 L49.1438599,83.4649124 C49.616693,83.7604331 50.3858566,83.7588396 50.8561401,83.4649124 L57.1438599,79.5350876 C57.616693,79.2395669 58,78.5431607 58,78.001663 L58,67 C58,60.9827881 65.7478027,51.9858398 67.4699707,49.1009015 Z" id="Oval-3" fill="#FFFFFF"></path>
                    <path d="M61.355481,45.565586 C62.4748901,43.6903761 63,41.361811 63,39 C63,31.8202983 57.1797017,26 50,26 C42.8202983,26 37,31.8202983 37,39 C37,41.3949892 37.6462323,43.6286451 38.7773642,45.565586 C39.9084961,47.5025269 44.8,53.315155 45.8,57.2 C46.8,61.084845 47.628125,66.0150563 47.628125,66.0150563 C47.7230489,66.5590257 48.052368,67.3728163 48.3551529,67.8201122 L49.4448471,69.4298878 C49.7514496,69.8828232 50.252368,69.8771837 50.5551529,69.4298878 L51.6448471,67.8201122 C51.9514496,67.3671768 52.2763335,66.5592194 52.371875,66.0187608 C52.371875,66.0187608 53.2,61.1111877 54.2,57.2 C55.2,53.2888123 60.2360718,47.4407959 61.355481,45.565586 Z" id="Oval-3-Copy" fill="#E6E6E6"></path>
                    <path d="M41,67 C41,66.4477153 41.4449463,66 41.9933977,66 L58.0066023,66 C58.5552407,66 59,66.4438648 59,67 L59,68 L41,68 L41,67 Z" id="Rectangle-2" fill="#9D7E70"></path>
                    <rect id="Rectangle-2-Copy" fill="#BEA295" x="41" y="68" width="18" height="2"></rect>
                    <rect id="Rectangle-2-Copy-3" fill="#9D7E70" x="41" y="70" width="18" height="2"></rect>
                    <rect id="Rectangle-2-Copy-2" fill="#BEA295" x="41" y="72" width="18" height="2"></rect>
                    <path d="M41,74 L59,74 L59,75 C59,75.5522847 58.5550537,76 58.0066023,76 L41.9933977,76 C41.4447593,76 41,75.5561352 41,75 L41,74 Z" id="Rectangle-2-Copy-5" fill="#9D7E70"></path>
                </g>
            </g>
        </g>
    </g>
</svg>