<?xml version="1.0" encoding="UTF-8"?>
<svg width="100px" height="100px" viewBox="0 0 100 100" version="1.1" xmlns="http://www.w3.org/2000/svg" xmlns:xlink="http://www.w3.org/1999/xlink">
    <!-- Generator: Sketch 46.1 (44463) - http://www.bohemiancoding.com/sketch -->
    <title>free-icon</title>
    <desc>Created with Sketch.</desc>
    <defs></defs>
    <g id="Domain-Author" stroke="none" stroke-width="1" fill="none" fill-rule="evenodd">
        <g id="1---Home-page" transform="translate(-871.000000, -1075.000000)">
            <g id="content" transform="translate(0.000000, 680.000000)">
                <g id="free-icon" transform="translate(871.000000, 395.000000)">
                    <circle id="Oval-Copy-3" fill="#FF9137" cx="50" cy="50" r="50"></circle>
                    <path d="M54.0717773,47.0043945 L46.2783203,37.8095703 C46.2783203,37.8095703 35.2151498,35.7281526 33.5097656,37.8095703 C32.966132,38.473074 29.5648426,41.1291781 28.3891602,44.7216797 C27.9446278,46.0800254 33.5097656,48.8051758 38.046875,51.730957 C39.0025668,52.3472404 45.9601114,56.292231 44.0375977,58.0595703 C43.1721862,58.8551306 38.6245634,62.5305326 34.5791016,63.6152344 C30.5336397,64.6999361 25.1347656,63.6152344 25.1347656,63.6152344 C25.1347656,63.6152344 25.1347656,63.6152344 60.8371902,98.8223627 C68.2019231,97.1949122 74.9566396,93.9435601 80.7065647,89.4630815 C82.3628961,88.1724287 83.9358505,86.7797837 85.4159915,85.294583 C86.8961326,83.8093823 88.2834603,82.2316258 89.5685384,80.57075 C93.4575206,75.5445042 96.4100714,69.7570356 98.1646635,63.4698705 L70.5532227,36.1896973 L59.0419922,36.8701172 L54.0717773,47.0043945 Z" id="Combined-Shape" fill="#F08C32"></path>
                    <path d="M47.2533894,57.0077705 C47.2533894,59.203438 46.4274666,61.0129437 44.7755961,62.4363419 C43.1237256,63.8597401 40.7394577,64.737994 37.6227209,65.0711297 L37.6227209,70 L34.5137915,70 L34.5137915,65.2074118 C30.6490379,65.1468417 27.4778058,64.571434 25,63.4811715 L25,58.6885834 C26.3401968,59.3245698 27.9063336,59.8583362 29.6984572,60.2898984 C31.4905809,60.7214606 33.0956763,60.9448096 34.5137915,60.9599522 L34.5137915,52.4650329 L32.5502571,51.7609085 C29.994533,50.8069289 28.1284148,49.6674703 26.9518467,48.3424985 C25.7752785,47.0175267 25.1870033,45.378372 25.1870033,43.4249851 C25.1870033,41.3353153 26.0246137,39.6166634 27.6998597,38.2689779 C29.3751058,36.9212923 31.6463936,36.1036077 34.5137915,35.8158996 L34.5137915,32 L37.6227209,32 L37.6227209,35.7477585 C40.7862087,35.8537563 43.7860229,36.4745909 46.6222534,37.6102809 L44.9158485,41.7668858 C42.4692101,40.8280487 40.0381919,40.2677833 37.6227209,40.0860729 L37.6227209,48.3538553 L39.399252,49.0125523 C42.3601519,50.1179573 44.4093756,51.283915 45.5469846,52.5104603 C46.6845935,53.7370055 47.2533894,55.236094 47.2533894,57.0077705 Z M41.7367929,57.3484758 C41.7367929,56.4702088 41.421228,55.7471636 40.7900888,55.1793186 C40.1589496,54.6114736 39.1031709,54.0625649 37.6227209,53.5325762 L37.6227209,60.7782427 C40.3654493,60.3693942 41.7367929,59.2261501 41.7367929,57.3484758 Z M30.6802244,43.3795577 C30.6802244,44.2426821 30.9568306,44.9619417 31.5100514,45.537358 C32.0632722,46.1127743 33.0645089,46.6806109 34.5137915,47.2408846 L34.5137915,40.1769277 C33.2670968,40.3586381 32.3165063,40.7296246 31.6619916,41.2898984 C31.0074769,41.8501722 30.6802244,42.5467183 30.6802244,43.3795577 Z M75,50.6933652 C75,56.4626708 74.0455137,60.7479438 72.1365124,63.5493126 C70.2275111,66.3506815 67.3095101,67.7513449 63.3824217,67.7513449 C59.5800028,67.7513449 56.6970645,66.3052545 54.7335203,63.4130305 C52.7699762,60.5208064 51.7882188,56.2809604 51.7882188,50.6933652 C51.7882188,44.8332044 52.7427051,40.5138613 54.6517064,37.7352062 C56.5607077,34.9565512 59.470917,33.5672445 63.3824217,33.5672445 C67.2004243,33.5672445 70.0911543,35.020906 72.0546985,37.9282726 C74.0182426,40.8356392 75,45.0906275 75,50.6933652 Z M57.3515662,50.6933652 C57.3515662,55.220983 57.8307572,58.4538656 58.7891538,60.39211 C59.7475504,62.3303544 61.2786244,63.299462 63.3824217,63.299462 C65.486219,63.299462 67.0250847,62.3152121 67.999065,60.3466826 C68.9730452,58.3781531 69.4600281,55.1604129 69.4600281,50.6933652 C69.4600281,46.2414601 68.9730452,43.0199342 67.999065,41.028691 C67.0250847,39.0374477 65.486219,38.041841 63.3824217,38.041841 C61.2786244,38.041841 59.7475504,39.0185198 58.7891538,40.9719068 C57.8307572,42.9252937 57.3515662,46.1657474 57.3515662,50.6933652 Z" id="$0" fill="#FFFFFF"></path>
                </g>
            </g>
        </g>
    </g>
</svg>