<?xml version="1.0" encoding="UTF-8"?>
<svg width="100px" height="100px" viewBox="0 0 100 100" version="1.1" xmlns="http://www.w3.org/2000/svg" xmlns:xlink="http://www.w3.org/1999/xlink">
    <!-- Generator: Sketch 46.1 (44463) - http://www.bohemiancoding.com/sketch -->
    <title>high-quality-icons</title>
    <desc>Created with Sketch.</desc>
    <defs></defs>
    <g id="Domain-Author" stroke="none" stroke-width="1" fill="none" fill-rule="evenodd">
        <g id="1---Home-page" transform="translate(-225.000000, -760.000000)">
            <g id="content" transform="translate(0.000000, 680.000000)">
                <g id="high-quality-icons" transform="translate(225.000000, 80.000000)">
                    <circle id="bg" fill="#FF9137" cx="50" cy="50" r="50"></circle>
                    <path d="M72.9667624,94.4248513 C84.5343176,88.4325036 93.4635111,78.0547902 97.5534419,65.4926121 C68.5092773,36.8745117 68.5092773,36.8745117 68.5092773,36.8745117 L46.4169922,67.6103516 C46.4169922,67.6103516 46.4169922,67.6103516 72.9667624,94.4248513 Z" id="bg-copy" fill="#F08C32"></path>
                    <path d="M35.046916,48.8069135 C33.8356759,47.6764228 31.9373281,47.7418831 30.8068374,48.9531231 C29.6763467,50.1643631 29.7418069,52.062711 30.953047,53.1932017 L45.9528985,67.1930632 C47.2681084,68.4205924 49.3605091,68.2224937 50.4219824,66.7699513 L69.4217944,40.7702086 C70.3993562,39.4324924 70.1073934,37.5555888 68.7696772,36.578027 C67.4319611,35.6004651 65.5550574,35.8924279 64.5774956,37.2301441 L47.5736641,60.4985451 L35.046916,48.8069135 Z" id="Path-3" fill="#FFFFFF" fill-rule="nonzero"></path>
                </g>
            </g>
        </g>
    </g>
</svg>