<?xml version="1.0" encoding="UTF-8"?>
<svg width="100px" height="100px" viewBox="0 0 100 100" version="1.1" xmlns="http://www.w3.org/2000/svg" xmlns:xlink="http://www.w3.org/1999/xlink">
    <!-- Generator: Sketch 46.1 (44463) - http://www.bohemiancoding.com/sketch -->
    <title>safety-icon</title>
    <desc>Created with Sketch.</desc>
    <defs></defs>
    <g id="Domain-Author" stroke="none" stroke-width="1" fill="none" fill-rule="evenodd">
        <g id="1---Home-page" transform="translate(-550.000000, -1075.000000)">
            <g id="content" transform="translate(0.000000, 680.000000)">
                <g id="safety-icon" transform="translate(550.000000, 395.000000)">
                    <circle id="Oval-Copy" fill="#FF9137" cx="50" cy="50" r="50"></circle>
                    <path d="M64.1575293,97.9673998 C82.7104952,92.5001536 96.7763391,76.561865 99.5148971,56.9926977 C71.3195801,29.1872559 71.3195801,29.1872559 71.3195801,29.1872559 L33.7524414,68.1918945 C33.7524414,68.1918945 33.7524414,68.1918945 64.1575293,97.9673998 Z" id="Oval-Copy-9" fill="#F08C32"></path>
                    <path d="M28.9359955,30.4560024 C29.1450928,29.8816215 29.6452388,29.4697831 30.239727,29.3824625 C35.4123245,28.6226918 39.6151104,27.3599895 42.9491193,25.7439405 C44.8893071,24.8034994 46.4031024,23.8080865 47.5399423,22.8274131 C48.1834141,22.2723344 48.5444038,21.8716846 48.670027,21.694084 C49.3246273,20.7686387 50.6753727,20.7686387 51.329973,21.694084 C51.4555962,21.8716846 51.8165859,22.2723344 52.4600577,22.8274131 C53.5968976,23.8080865 55.1106929,24.8034994 57.0508807,25.7439405 C60.3848896,27.3599895 64.5876755,28.6226918 69.760273,29.3824625 C70.3547612,29.4697831 70.8549072,29.8816215 71.0640045,30.4560024 C77.3575744,47.7441495 73.1227572,60.4405109 62.2760439,70.7795375 C59.7450873,73.1920312 57.0379317,75.2164455 54.3289336,76.8712976 C53.3782316,77.4520552 52.4932573,77.9460545 51.6956509,78.3552792 C51.2084342,78.6052536 50.8523971,78.7739951 50.6491846,78.8633499 C50.2348216,79.04555 49.7651784,79.04555 49.3508154,78.8633499 C49.1476029,78.7739951 48.7915658,78.6052536 48.3043491,78.3552792 C47.5067427,77.9460545 46.6217684,77.4520552 45.6710664,76.8712976 C42.9620683,75.2164455 40.2549127,73.1920312 37.7239561,70.7795375 C26.8772428,60.4405109 22.6424256,47.7441495 28.9359955,30.4560024 Z" id="Path" fill="#B48C7D"></path>
                    <path d="M39.9622879,68.5911783 C42.2856076,70.7904808 44.8512351,72.7314378 47.5653987,74.3780108 C48.4160301,74.8940544 49.2349895,75.3521742 50,75.7436636 C50.7650105,75.3521742 51.5839699,74.8940544 52.4346013,74.3780108 C55.1487649,72.7314378 57.7143924,70.7904808 60.0377121,68.5911783 C70.650224,58.5451551 73.6743729,47.2161031 68.6304286,32.4149264 C63.6085323,31.5789303 59.2604206,30.2690339 55.6097206,28.5116832 C53.3930942,27.4446578 51.5132753,26.251339 50,24.962145 C48.4867247,26.251339 46.6069058,27.4446578 44.3902794,28.5116832 C40.7395794,30.2690339 36.3914677,31.5789303 31.3695729,32.4149228 C26.3256271,47.2161031 29.349776,58.5451551 39.9622879,68.5911783 Z M28.0583286,29.7820715 C28.2761384,29.1878843 28.7971238,28.7618446 29.4163823,28.6715129 C34.8045047,27.8855432 39.1824066,26.5792995 42.6553326,24.9075246 C44.6763616,23.9346546 46.2532317,22.904917 47.4374399,21.8904274 C48.107723,21.316208 48.483754,20.9017426 48.6146115,20.7180179 C49.2964867,19.7606607 50.7035133,19.7606607 51.3853885,20.7180179 C51.516246,20.9017426 51.892277,21.316208 52.5625601,21.8904274 C53.7467683,22.904917 55.3236384,23.9346546 57.3446674,24.9075246 C60.8175934,26.5792995 65.1954953,27.8855432 70.5836177,28.6715129 C71.2028762,28.7618446 71.7238616,29.1878843 71.9416714,29.7820715 C78.4974734,47.6663615 74.0862054,60.8005285 62.7875458,71.4960733 C60.1511326,73.9917565 57.3311788,76.0859781 54.5093059,77.797894 C53.5189913,78.3986778 52.597143,78.9097115 51.766303,79.3330475 C51.2587856,79.5916416 50.8879137,79.7662018 50.676234,79.8586378 C50.2446059,80.0471207 49.7553941,80.0471207 49.323766,79.8586378 C49.1120863,79.7662018 48.7412144,79.5916416 48.233697,79.3330475 C47.402857,78.9097115 46.4810087,78.3986778 45.4906941,77.797894 C42.6688212,76.0859781 39.8488674,73.9917565 37.2124542,71.4960733 C25.9137946,60.8005285 21.5025266,47.6663615 28.0583286,29.7820715 Z" id="Combined-Shape" fill="#FFFFFF" fill-rule="nonzero"></path>
                    <path d="M42.5234774,49.4034171 C41.9178514,48.8381662 40.968668,48.8708966 40.4034171,49.4765226 C39.8381662,50.0821486 39.8708966,51.031332 40.4765226,51.5965829 L47.9765226,58.5965829 C48.6341341,59.2103536 49.6803448,59.1113033 50.2110867,58.3850249 L59.7110867,45.3850249 C60.1998724,44.7161602 60.0538896,43.7776991 59.3850249,43.2889133 C58.7161602,42.8001276 57.7776991,42.9461104 57.2889133,43.6149751 L48.7869134,55.2492907 L42.5234774,49.4034171 Z" id="Path-3" fill="#FFFFFF" fill-rule="nonzero"></path>
                </g>
            </g>
        </g>
    </g>
</svg>