<?xml version="1.0" encoding="UTF-8"?>
<svg width="100px" height="100px" viewBox="0 0 100 100" version="1.1" xmlns="http://www.w3.org/2000/svg" xmlns:xlink="http://www.w3.org/1999/xlink">
    <!-- Generator: Sketch 46.1 (44463) - http://www.bohemiancoding.com/sketch -->
    <title>seo-icon</title>
    <desc>Created with Sketch.</desc>
    <defs></defs>
    <g id="Domain-Author" stroke="none" stroke-width="1" fill="none" fill-rule="evenodd">
        <g id="1---Home-page" transform="translate(-871.000000, -760.000000)">
            <g id="content" transform="translate(0.000000, 680.000000)">
                <g id="seo-icon" transform="translate(921.000000, 130.000000) scale(-1, 1) translate(-921.000000, -130.000000) translate(871.000000, 80.000000)">
                    <circle id="Oval-Copy-2" fill="#FF9137" cx="50" cy="50" r="50"></circle>
                    <path d="M87,60 L29,25 C29,25 0.0405827287,52.3420363 0.120423836,53.4975121 C1.86740327,78.7801347 22.4099243,98.89068 47.874476,99.9556374 C48.5793111,99.9851144 87,60 87,60 Z" id="Oval-Copy-4" fill="#F08C32"></path>
                    <path d="M33.3415534,29.1886053 L47.6105534,16.473533 C48.8495534,15.3697488 50.8595534,15.3717539 52.0965534,16.473533 L66.3655534,29.1886053 C67.1875534,29.9214539 67.8535534,31.4202344 67.8535534,32.5270261 L67.8535534,82.6519381 C67.8535534,83.2013238 67.3985534,83.6464466 66.8535534,83.6464466 L32.8535534,83.6464466 C32.3015534,83.6464466 31.8535534,83.1953087 31.8535534,82.6519381 L31.8535534,32.5270261 C31.8535534,31.4152217 32.5155534,29.925464 33.3415534,29.1886053 Z M49.8535534,36.6464466 C53.1672619,36.6464466 55.8535534,33.9601551 55.8535534,30.6464466 C55.8535534,27.3327381 53.1672619,24.6464466 49.8535534,24.6464466 C46.5398449,24.6464466 43.8535534,27.3327381 43.8535534,30.6464466 C43.8535534,33.9601551 46.5398449,36.6464466 49.8535534,36.6464466 Z" id="Combined-Shape" fill="#FFFFFF" transform="translate(49.853553, 49.646447) rotate(-45.000000) translate(-49.853553, -49.646447) "></path>
                    <path d="M36.4185245,43.2114178 C32.5525313,43.2114178 29.4185245,40.077411 29.4185245,36.2114178 C29.4185245,32.3454245 32.5525313,29.2114178 36.4185245,29.2114178 C40.2845178,29.2114178 43.4185245,32.3454245 43.4185245,36.2114178 C43.4185245,40.077411 40.2845178,43.2114178 36.4185245,43.2114178 Z M36.4185245,41.2114178 C39.1799483,41.2114178 41.4185245,38.9728415 41.4185245,36.2114178 C41.4185245,33.449994 39.1799483,31.2114178 36.4185245,31.2114178 C33.6571008,31.2114178 31.4185245,33.449994 31.4185245,36.2114178 C31.4185245,38.9728415 33.6571008,41.2114178 36.4185245,41.2114178 Z" id="Oval-4-Copy" fill="#FFFFFF" fill-rule="nonzero" transform="translate(36.418525, 36.211418) rotate(-45.000000) translate(-36.418525, -36.211418) "></path>
                    <rect id="Rectangle-7" fill="#785A46" transform="translate(22.579058, 22.371952) rotate(-45.000000) translate(-22.579058, -22.371952) " x="20.5790585" y="11.799991" width="4" height="21.1439213"></rect>
                    <rect id="Rectangle-7-Copy" fill="#8C645A" transform="translate(29.347457, 29.140350) rotate(-45.000000) translate(-29.347457, -29.140350) " x="26.3474567" y="18.14035" width="6" height="22" rx="1"></rect>
                    <path d="M48.0048967,57.3804701 C48.0048967,58.4330431 47.6261356,59.2623306 46.868602,59.8683575 C46.1110684,60.4743843 45.0571822,60.7773932 43.7069118,60.7773932 C42.4629619,60.7773932 41.3625612,60.5434916 40.4056767,60.0756814 L40.4056767,57.77917 C41.1924484,58.1300276 41.8582706,58.3772191 42.4031631,58.5207518 C42.9480557,58.6642845 43.4464256,58.7360497 43.8982878,58.7360497 C44.4405223,58.7360497 44.8564951,58.6323888 45.1462185,58.4250638 C45.4359418,58.2177388 45.5808013,57.909414 45.5808013,57.5000801 C45.5808013,57.271491 45.51701,57.0681561 45.3894254,56.8900692 C45.2618408,56.7119824 45.0744537,56.5405431 44.8272585,56.3757463 C44.5800634,56.2109496 44.0763775,55.9478103 43.3161859,55.5863205 C42.6038385,55.2514109 42.069586,54.9297962 41.7134123,54.6214668 C41.3572386,54.3131373 41.0728355,53.954311 40.8601945,53.5449771 C40.6475535,53.1356431 40.5412346,52.657208 40.5412346,52.1096574 C40.5412346,51.0783485 40.890758,50.2676668 41.5898154,49.677588 C42.2888727,49.0875092 43.2550458,48.7924743 44.4883636,48.7924743 C45.0943905,48.7924743 45.6724996,48.8642395 46.2227082,49.0077722 C46.7729168,49.1513049 47.3483679,49.3533108 47.9490787,49.6137961 L47.1516789,51.5355296 C46.529704,51.2803604 46.0153863,51.1022762 45.6087103,51.0012717 C45.2020344,50.9002672 44.8020095,50.8497657 44.4086236,50.8497657 C43.9408134,50.8497657 43.5819871,50.9587426 43.3321339,51.1766997 C43.0822807,51.3946567 42.957356,51.6790598 42.957356,52.0299174 C42.957356,52.2478745 43.0078575,52.4379195 43.108862,52.6000583 C43.2098664,52.7621971 43.3706738,52.9190175 43.5912888,53.0705242 C43.8119039,53.2220309 44.3341955,53.4944731 45.1581794,53.887859 C46.2479646,54.4088294 46.994855,54.9311211 47.3988729,55.4547496 C47.8028908,55.9783781 48.0048967,56.6202785 48.0048967,57.3804701 Z M56.8321125,60.6179133 L50.1180062,60.6179133 L50.1180062,48.9599282 L56.8321125,48.9599282 L56.8321125,50.9853237 L52.5899456,50.9853237 L52.5899456,53.5449771 L56.5370746,53.5449771 L56.5370746,55.5703725 L52.5899456,55.5703725 L52.5899456,58.5765698 L56.8321125,58.5765698 L56.8321125,60.6179133 Z M69.8456772,54.7729727 C69.8456772,56.7026899 69.3672421,58.1858387 68.4103576,59.2224636 C67.453473,60.2590885 66.0819591,60.7773932 64.2957746,60.7773932 C62.5095901,60.7773932 61.1380762,60.2590885 60.1811916,59.2224636 C59.2243071,58.1858387 58.745872,56.697374 58.745872,54.7570247 C58.745872,52.8166755 59.2256361,51.3348557 60.1851786,50.3115209 C61.1447212,49.288186 62.5202221,48.7765263 64.3117226,48.7765263 C66.1032231,48.7765263 67.473408,49.292173 68.4223185,50.3234819 C69.3712291,51.3547908 69.8456772,52.8379396 69.8456772,54.7729727 Z M61.3374213,54.7729727 C61.3374213,56.0753989 61.5846128,57.0561909 62.0790032,57.715378 C62.5733935,58.3745651 63.3123099,58.7041537 64.2957746,58.7041537 C66.26802,58.7041537 67.2541278,57.3937732 67.2541278,54.7729727 C67.2541278,52.1468563 66.2733359,50.8338177 64.3117226,50.8338177 C63.3282579,50.8338177 62.5866835,51.1647353 62.0869772,51.8265805 C61.5872708,52.4884256 61.3374213,53.4705466 61.3374213,54.7729727 Z" id="SEO" fill="#8C645A" transform="translate(55.125677, 54.776960) scale(-1, 1) rotate(-45.000000) translate(-55.125677, -54.776960) "></path>
                </g>
            </g>
        </g>
    </g>
</svg>