<?xml version="1.0" encoding="UTF-8"?>
<svg width="22px" height="22px" viewBox="0 0 22 22" version="1.1" xmlns="http://www.w3.org/2000/svg" xmlns:xlink="http://www.w3.org/1999/xlink">
    <!-- Generator: Sketch 46.1 (44463) - http://www.bohemiancoding.com/sketch -->
    <title>settings-icon copy</title>
    <desc>Created with Sketch.</desc>
    <defs></defs>
    <g id="Domain-Author" stroke="none" stroke-width="1" fill="none" fill-rule="evenodd">
        <g id="1---Home-page" transform="translate(-210.000000, -425.000000)" fill="#FF530A">
            <g id="top">
                <path d="M221,431.875 C218.721625,431.875 216.875,433.721625 216.875,436 C216.875,438.278375 218.721625,440.125 221,440.125 C223.278375,440.125 225.125,438.278375 225.125,436 C225.125,433.721625 223.278375,431.875 221,431.875 L221,431.875 Z M230.994421,434.625 C231.549787,434.625 232,435.079107 232,435.617813 L232,436.382187 C232,436.930502 231.550762,437.375 230.994421,437.375 L229.124875,437.375 C228.92,438.59325 228.436,439.711125 227.758125,440.684625 L229.883927,442.533678 C230.302323,442.897604 230.365425,443.533322 230.013275,443.967899 L229.284225,444.867601 C228.937266,445.295773 228.315938,445.347105 227.902947,444.987905 L225.478375,442.879125 C224.551625,443.48 223.509375,443.92 222.375,444.111125 L222.375,446.005813 C222.375,446.554887 221.920893,447 221.382187,447 L220.617813,447 C220.069498,447 219.625,446.550762 219.625,445.994421 L219.625,444.124875 C218.487875,443.93375 217.442875,443.491 216.5175,442.88325 L214.096075,444.988882 C213.680716,445.350073 213.067925,445.302178 212.715775,444.867601 L211.986725,443.967899 C211.639766,443.539727 211.689891,442.904452 212.117518,442.532594 L214.247375,440.6805 C213.575,439.708375 213.09375,438.5905 212.888875,437.375 L210.994187,437.375 C210.445113,437.375 210,436.920893 210,436.382187 L210,435.617813 C210,435.069498 210.449238,434.625 211.005579,434.625 L212.875125,434.625 C213.08,433.40675 213.564,432.288875 214.241875,431.315375 L212.116073,429.467336 C211.697677,429.103609 211.634575,428.467862 211.986725,428.033041 L212.715775,427.132834 C213.062734,426.704422 213.684209,426.652895 214.097379,427.012095 L216.523,429.120875 C217.448375,428.52 218.490625,428.08 219.625,427.888875 L219.625,425.994187 C219.625,425.445113 220.079107,425 220.617813,425 L221.382187,425 C221.930502,425 222.375,425.451387 222.375,425.994187 L222.375,427.888875 C223.509375,428.08 224.551625,428.52 225.478375,429.120875 L227.902947,427.012095 C228.318847,426.650365 228.932075,426.698013 229.284225,427.132834 L230.013275,428.033041 C230.360234,428.461453 230.31074,429.096292 229.883927,429.467336 L227.758125,431.315375 C228.436,432.288875 228.92,433.40675 229.124875,434.625 L230.994421,434.625 Z" id="settings-icon-copy"></path>
            </g>
        </g>
    </g>
</svg>